<?xml version="1.0" encoding="utf-8"?>
<!-- Generator: Adobe Illustrator 17.1.0, SVG Export Plug-In . SVG Version: 6.00 Build 0)  -->
<!DOCTYPE svg PUBLIC "-//W3C//DTD SVG 1.1//EN" "http://www.w3.org/Graphics/SVG/1.1/DTD/svg11.dtd">
<svg version="1.1" id="Layer_1" xmlns="http://www.w3.org/2000/svg" xmlns:xlink="http://www.w3.org/1999/xlink" x="0px" y="0px"
	 viewBox="0 0 23.4 26.2" enable-background="new 0 0 23.4 26.2" xml:space="preserve">
<g>
	<path fill="#1ABBB4" d="M10.4,25.9l-9-5.2C0.5,20.2,0,19.3,0,18.3L0,7.9c0-1,0.5-1.9,1.3-2.3l9-5.2c0.8-0.5,1.9-0.5,2.7,0l9,5.2
		c0.8,0.5,1.3,1.4,1.3,2.3v10.4c0,1-0.5,1.9-1.3,2.3l-9,5.2C12.2,26.4,11.2,26.4,10.4,25.9z"/>
	<g>
		<g>
			<path fill="#FFFFFF" d="M6.6,15.1c0.1-0.4,0.3-0.5,0.7-0.5h0.6c0.5,0,0.7,0.3,0.5,0.7l-0.9,2.6c-0.1,0.4-0.4,0.5-0.7,0.5H6.5
				c-0.5,0-0.7-0.3-0.6-0.7L6.6,15.1z M6.7,10V9.3c0-0.4,0.2-0.6,0.6-0.6H8c0.4,0,0.6,0.2,0.6,0.6V10c0,0.4-0.2,0.6-0.6,0.6H7.3
				C6.9,10.7,6.7,10.4,6.7,10z"/>
			<path fill="#FFFFFF" d="M13.7,18c0.3,0,0.9-0.1,0.9-1.3V15c0-1.6,1.3-1.9,1.3-1.9v0c0,0-1.3-0.4-1.3-1.9V9.5
				c0-1.2-0.6-1.3-0.9-1.3c-0.4,0-0.6-0.2-0.6-0.6V7.3c0-0.4,0.2-0.6,0.6-0.6h0.2c0.7,0,2.3,0.4,2.3,2.6v1.3c0,0.9,0.4,1.3,0.8,1.5
				c0.3,0.2,0.5,0.3,0.5,0.7v0.6c0,0.4-0.2,0.5-0.5,0.7c-0.3,0.2-0.8,0.6-0.8,1.4V17c0,2.2-1.7,2.6-2.3,2.6h-0.2
				c-0.4,0-0.6-0.2-0.6-0.6v-0.2C13.1,18.3,13.3,18,13.7,18z"/>
		</g>
	</g>
</g>
</svg>
