<?xml version="1.0" encoding="utf-8"?>
<!-- Generator: Adobe Illustrator 17.1.0, SVG Export Plug-In . SVG Version: 6.00 Build 0)  -->
<!DOCTYPE svg PUBLIC "-//W3C//DTD SVG 1.1//EN" "http://www.w3.org/Graphics/SVG/1.1/DTD/svg11.dtd">
<svg version="1.1" id="Layer_1" xmlns="http://www.w3.org/2000/svg" xmlns:xlink="http://www.w3.org/1999/xlink" x="0px" y="0px"
	 viewBox="0 0 846.5 245.8" enable-background="new 0 0 846.5 245.8" xml:space="preserve">
<g>
	<g>
		<path fill-rule="evenodd" clip-rule="evenodd" fill="#2799C3" d="M37,162.1l-19.7-13.9c-23-16.3-23-42.9,0-59.2l116-82
			c35.5-23,55.1,15.6,3.2,50L82.7,95.1C58.9,110.8,28.9,134.4,37,162.1z"/>
		<path fill-rule="evenodd" clip-rule="evenodd" fill="#2799C3" d="M156.1,192.2c38.3,30.3,19.6,65.6-3.9,49.6L80.7,193
			c-40.4-27.6-14.5-79.3,8.8-94.7c-17.5,15-16.5,35.5,4.2,50L156.1,192.2z"/>
		<path fill="#2799C3" d="M194.4,80.9h8.6v30.5l33.6-30.5H248l-40.5,36.4l43.6,44.8H240l-37-37.9v37.9h-8.6V80.9L194.4,80.9z
			 M262.5,80.9h8.4v81.2h-8.4V80.9L262.5,80.9z M324.6,80.9l39.3,81.2h-9.1l-13.2-26.7h-36.3l-13.2,26.7h-9.4l39.8-81.2H324.6
			L324.6,80.9z M323.6,98.1l-14.5,29.4h28.8L323.6,98.1L323.6,98.1z M377.1,162.1V80.9h1.8l56,62.2V80.9h8.3v81.2h-1.9l-55.5-61.4
			v61.4H377.1L377.1,162.1z M463.7,162.1V80.9h17.4c12.6,0,21.7,1,27.4,2.9c8.2,2.8,14.6,7.5,19.1,14.3c4.6,6.8,6.9,14.9,6.9,24.3
			c0,8.1-1.8,15.3-5.5,21.5c-3.6,6.2-8.4,10.7-14.2,13.7c-5.8,2.9-14,4.4-24.4,4.4H463.7L463.7,162.1z M471.8,154.5h9.7
			c11.6,0,19.7-0.7,24.2-2.1c6.3-2,11.3-5.6,14.9-10.7c3.6-5.2,5.4-11.5,5.4-19c0-7.8-2-14.5-5.9-20.1c-3.9-5.6-9.4-9.4-16.4-11.5
			c-5.2-1.5-13.9-2.3-26-2.3h-5.9V154.5L471.8,154.5z M551.4,80.9h16.8c9.4,0,15.7,0.4,19,1.1c5,1.1,9.1,3.5,12.2,7.1
			c3.1,3.6,4.7,8.1,4.7,13.4c0,4.4-1.1,8.3-3.2,11.6c-2.2,3.4-5.2,5.9-9.2,7.6c-4,1.7-9.5,2.6-16.6,2.6l30.3,37.8h-10.4l-30.2-37.8
			h-4.8v37.8h-8.4V80.9L551.4,80.9z M559.8,88.9v27.6l14.5,0.1c5.6,0,9.7-0.5,12.4-1.6c2.7-1,4.8-2.7,6.3-4.9
			c1.5-2.2,2.3-4.8,2.3-7.6c0-2.7-0.8-5.2-2.3-7.4c-1.5-2.2-3.5-3.8-6-4.8c-2.5-0.9-6.6-1.4-12.4-1.4H559.8L559.8,88.9z M656.4,80.9
			l39.2,81.2h-9l-13.2-26.7h-36.3L624,162.1h-9.4l39.8-81.2H656.4L656.4,80.9z M655.4,98.1l-14.5,29.4h28.8L655.4,98.1z"/>
		<path fill-rule="evenodd" clip-rule="evenodd" fill="#2799C3" d="M727.1,80.7h13.7V162h-13.7V80.7L727.1,80.7z M779.2,93.7V162
			h-13.9V93.7h-18.8v-13h51.5v13H779.2z"/>
	</g>
	<g>
		<path fill="#2799C3" d="M846.5,94.8c0,2.6-0.6,5-1.9,7.2c-1.3,2.2-3,4-5.3,5.3c-2.2,1.3-4.6,1.9-7.2,1.9c-2.6,0-5-0.6-7.2-1.9
			c-2.2-1.3-4-3-5.3-5.3c-1.3-2.2-1.9-4.6-1.9-7.2c0-2.6,0.6-5,1.9-7.2c1.3-2.2,3-4,5.3-5.3c2.2-1.3,4.6-1.9,7.2-1.9
			c2.6,0,5,0.6,7.2,1.9c2.2,1.3,4,3,5.3,5.3C845.9,89.9,846.5,92.3,846.5,94.8z M843.5,94.9c0-3.2-1.1-5.9-3.3-8.1
			c-2.2-2.2-4.9-3.3-8.1-3.3c-3.2,0-5.9,1.1-8.1,3.3c-2.2,2.2-3.4,4.9-3.4,8c0,2,0.5,3.9,1.5,5.7c1,1.7,2.4,3.1,4.2,4.1
			c1.8,1,3.7,1.5,5.7,1.5c2,0,3.9-0.5,5.7-1.5c1.8-1,3.2-2.4,4.2-4.1C843,98.7,843.5,96.9,843.5,94.9z M826.1,87h7
			c1.5,0,2.5,0.2,3.2,0.5c0.7,0.3,1.2,0.8,1.7,1.5c0.4,0.7,0.6,1.5,0.6,2.5c0,0.8-0.1,1.5-0.4,2.1c-0.3,0.5-0.7,1.1-1.5,1.6
			c0.6,0.3,1,0.7,1.2,1.1c0.2,0.4,0.3,1.1,0.4,2.2c0.1,2,0.2,3.1,0.3,3.4c0.1,0.3,0.3,0.6,0.7,0.9h-4c-0.2-0.4-0.3-0.8-0.3-1.1
			c-0.1-0.3-0.1-0.8-0.1-1.5c0-1.4-0.1-2.3-0.2-2.6c-0.1-0.3-0.3-0.6-0.6-0.7c-0.3-0.2-0.8-0.2-1.7-0.2h-2.8v6.1h-3.5V87z M829.6,90
			v3.7h2.9c1.1,0,1.9-0.2,2.2-0.5c0.4-0.3,0.5-0.8,0.5-1.4c0-0.7-0.2-1.1-0.5-1.4c-0.4-0.3-1.1-0.4-2.2-0.4H829.6z"/>
	</g>
</g>
</svg>
