<?xml version="1.0" encoding="utf-8"?>
<!-- Generator: Adobe Illustrator 17.1.0, SVG Export Plug-In . SVG Version: 6.00 Build 0)  -->
<!DOCTYPE svg PUBLIC "-//W3C//DTD SVG 1.1//EN" "http://www.w3.org/Graphics/SVG/1.1/DTD/svg11.dtd">
<svg version="1.1" id="Layer_1" xmlns="http://www.w3.org/2000/svg" xmlns:xlink="http://www.w3.org/1999/xlink" x="0px" y="0px"
	 viewBox="0 0 792 612" enable-background="new 0 0 792 612" xml:space="preserve">
<g>
	<path fill="#0080C7" d="M34.4,342.8l-18.2-13.4c-22-15.3-22-40.1,0-55.4l108.9-76.4c33.4-22,51.6,14.3,2.9,46.8l-50.6,35.3
		C55.4,295,26.8,317,34.4,342.8"/>
	<path fill="#0080C7" d="M146.2,370.5c36.3,28.7,18.2,61.1-3.8,46.8l-66.9-45.9c-38.2-25.8-13.4-74.5,8.6-88.8
		c-16.2,14.3-15.3,33.4,3.8,46.8L146.2,370.5z"/>
	<path fill="#0080C7" d="M181.5,266.4h7.6V295l31.5-28.7h10.5L193,300.7l41.1,42h-10.5l-34.4-35.3v35.3h-7.6V266.4z M245.5,266.4
		h7.6v76.4h-7.6V266.4z M303.8,266.4l37.3,76.4h-8.6L320,317.9h-34.4l-12.4,24.8h-8.6l37.3-76.4
		C301.9,266.4,303.8,266.4,303.8,266.4z M302.9,282.6l-13.4,27.7h26.8L302.9,282.6z M352.5,342.8v-76.4h1.9l52.5,58.3v-58.3h7.6
		v76.4h-1.9l-51.6-57.3v57.3H352.5z M433.7,342.8v-76.4H450c11.5,0,20.1,1,25.8,2.9c7.6,2.9,13.4,6.7,18.2,13.4
		c4.8,6.7,6.7,14.3,6.7,22.9c0,7.6-1.9,14.3-4.8,20.1c-3.8,5.7-7.6,10.5-13.4,12.4c-5.7,2.9-13.4,3.8-22.9,3.8h-25.8V342.8z
		 M441.4,335.1h9.6c10.5,0,18.2-1,22.9-1.9c5.7-1.9,10.5-4.8,14.3-10.5c3.8-4.8,4.8-10.5,4.8-18.2s-1.9-13.4-5.7-19.1
		c-3.8-4.8-8.6-8.6-15.3-10.5c-4.8-1.9-13.4-1.9-23.9-1.9h-5.7v62.1H441.4z M515.9,266.4h15.3c8.6,0,14.3,0,18.2,1
		c4.8,1,8.6,2.9,11.5,6.7s4.8,7.6,4.8,12.4c0,3.8-1,7.6-2.9,10.5c-1.9,2.9-4.8,5.7-8.6,6.7c-3.8,1.9-8.6,2.9-15.3,2.9l28.7,35.3
		h-9.6l-28.7-35.3h-4.8v35.3h-8.6V266.4z M523.5,274v25.8h13.4c4.8,0,9.6-1,11.5-1.9c2.9-1,4.8-2.9,5.7-4.8c1-1.9,1.9-4.8,1.9-6.7
		c0-2.9-1-4.8-1.9-6.7s-2.9-3.8-5.7-4.8c-1.9-1-5.7-1-11.5-1H523.5z M614.3,266.4l36.3,76.4H642l-11.5-24.8h-34.4l-12.4,24.8h-8.6
		l37.3-76.4C612.4,266.4,614.3,266.4,614.3,266.4z M613.3,282.6L600,310.3h26.8L613.3,282.6z"/>
	<path fill="#0080C7" d="M680.2,266.4h12.4v76.4h-12.4V266.4z M728.9,278.8v64h-12.4v-64h-17.2v-12.4h47.8v12.4H728.9z"/>
	<path fill="#0080C7" d="M792,279.7c0,2.9-1,4.8-1.9,6.7c-1,1.9-2.9,3.8-4.8,4.8c-1.9,1-4.8,1.9-6.7,1.9c-2.9,0-4.8-1-6.7-1.9
		c-1.9-1-3.8-2.9-4.8-4.8c-1-1.9-1.9-4.8-1.9-6.7c0-2.9,1-4.8,1.9-6.7c1-1.9,2.9-3.8,4.8-4.8c1.9-1,4.8-1.9,6.7-1.9
		c2.9,0,4.8,1,6.7,1.9c1.9,1,3.8,2.9,4.8,4.8C792,275,792,276.9,792,279.7 M789.1,279.7c0-2.9-1-5.7-2.9-7.6
		c-1.9-1.9-4.8-2.9-7.6-2.9s-5.7,1-7.6,2.9c-1.9,1.9-2.9,4.8-2.9,7.6c0,1.9,0,3.8,1,5.7c1,1.9,1.9,2.9,3.8,3.8c1.9,1,3.8,1,5.7,1
		s3.8,0,5.7-1s2.9-1.9,3.8-3.8C789.1,283.5,789.1,281.6,789.1,279.7 M772.9,272.1h6.7c1,0,1.9,0,2.9,0s1,1,1.9,1.9c0,1,1,1.9,1,1.9
		c0,1,0,1,0,1.9c0,1-1,1-1,1.9c1,0,1,1,1,1s0,1,0,1.9c0,1.9,0,2.9,0,2.9s0,1,1,1h-3.8v-1v-1c0-1,0-1.9,0-2.9c0,0,0-1-1-1
		c0,0-1,0-1.9,0h-2.9v5.7h-2.9v-14.3H772.9z M776.7,275v3.8h2.9c1,0,1.9,0,1.9,0l1-1c0-1,0-1-1-1c0,0-1,0-1.9,0h-2.9V275z"/>
</g>
</svg>
