<?xml version="1.0" encoding="utf-8"?>
<!-- Generator: Adobe Illustrator 17.1.0, SVG Export Plug-In . SVG Version: 6.00 Build 0)  -->
<!DOCTYPE svg PUBLIC "-//W3C//DTD SVG 1.1//EN" "http://www.w3.org/Graphics/SVG/1.1/DTD/svg11.dtd">
<svg version="1.1" id="Layer_1" xmlns="http://www.w3.org/2000/svg" xmlns:xlink="http://www.w3.org/1999/xlink" x="0px" y="0px"
	 viewBox="0 0 82.9 24.1" enable-background="new 0 0 82.9 24.1" xml:space="preserve">
<g>
	<path fill-rule="evenodd" clip-rule="evenodd" fill="#FFFFFF" d="M3.6,15.9l-1.9-1.4c-2.3-1.6-2.3-4.2,0-5.8l11.4-8
		c3.5-2.3,5.4,1.5,0.3,4.9L8.1,9.3C5.8,10.9,2.8,13.2,3.6,15.9"/>
	<path fill-rule="evenodd" clip-rule="evenodd" fill="#FFFFFF" d="M15.3,18.8c3.8,3,1.9,6.4-0.4,4.9l-7-4.8c-4-2.7-1.4-7.8,0.9-9.3
		c-1.7,1.5-1.6,3.5,0.4,4.9L15.3,18.8z"/>
	<path fill="#FFFFFF" d="M19,7.9h0.8v3l3.3-3h1.1l-4,3.6l4.3,4.4h-1.1l-3.6-3.7v3.7H19V7.9z M25.7,7.9h0.8v8h-0.8V7.9z M31.8,7.9
		l3.9,8h-0.9l-1.3-2.6h-3.6l-1.3,2.6h-0.9l3.9-8H31.8z M31.7,9.6l-1.4,2.9h2.8L31.7,9.6z M36.9,15.9v-8h0.2l5.5,6.1V7.9h0.8v8h-0.2
		l-5.4-6v6H36.9z M45.4,15.9v-8h1.7c1.2,0,2.1,0.1,2.7,0.3c0.8,0.3,1.4,0.7,1.9,1.4c0.5,0.7,0.7,1.5,0.7,2.4c0,0.8-0.2,1.5-0.5,2.1
		c-0.4,0.6-0.8,1.1-1.4,1.3c-0.6,0.3-1.4,0.4-2.4,0.4H45.4z M46.2,15.1h1c1.1,0,1.9-0.1,2.4-0.2c0.6-0.2,1.1-0.5,1.5-1.1
		c0.4-0.5,0.5-1.1,0.5-1.9c0-0.8-0.2-1.4-0.6-2c-0.4-0.5-0.9-0.9-1.6-1.1c-0.5-0.2-1.4-0.2-2.5-0.2h-0.6V15.1z M54,7.9h1.6
		c0.9,0,1.5,0,1.9,0.1c0.5,0.1,0.9,0.3,1.2,0.7c0.3,0.4,0.5,0.8,0.5,1.3c0,0.4-0.1,0.8-0.3,1.1c-0.2,0.3-0.5,0.6-0.9,0.7
		c-0.4,0.2-0.9,0.3-1.6,0.3l3,3.7h-1l-3-3.7h-0.5v3.7H54V7.9z M54.8,8.7v2.7l1.4,0c0.5,0,1-0.1,1.2-0.2c0.3-0.1,0.5-0.3,0.6-0.5
		c0.1-0.2,0.2-0.5,0.2-0.7c0-0.3-0.1-0.5-0.2-0.7c-0.1-0.2-0.3-0.4-0.6-0.5c-0.2-0.1-0.6-0.1-1.2-0.1H54.8z M64.3,7.9l3.8,8h-0.9
		L66,13.3h-3.6l-1.3,2.6h-0.9l3.9-8H64.3z M64.2,9.6l-1.4,2.9h2.8L64.2,9.6z"/>
	<path fill-rule="evenodd" clip-rule="evenodd" fill="#FFFFFF" d="M71.2,7.9h1.3v8h-1.3V7.9z M76.3,9.2v6.7H75V9.2h-1.8V7.9h5v1.3
		H76.3z"/>
	<path fill="#FFFFFF" d="M82.9,9.3c0,0.3-0.1,0.5-0.2,0.7c-0.1,0.2-0.3,0.4-0.5,0.5c-0.2,0.1-0.5,0.2-0.7,0.2
		c-0.3,0-0.5-0.1-0.7-0.2c-0.2-0.1-0.4-0.3-0.5-0.5c-0.1-0.2-0.2-0.5-0.2-0.7c0-0.3,0.1-0.5,0.2-0.7c0.1-0.2,0.3-0.4,0.5-0.5
		c0.2-0.1,0.5-0.2,0.7-0.2c0.3,0,0.5,0.1,0.7,0.2c0.2,0.1,0.4,0.3,0.5,0.5C82.9,8.8,82.9,9,82.9,9.3 M82.6,9.3
		c0-0.3-0.1-0.6-0.3-0.8c-0.2-0.2-0.5-0.3-0.8-0.3c-0.3,0-0.6,0.1-0.8,0.3c-0.2,0.2-0.3,0.5-0.3,0.8c0,0.2,0,0.4,0.1,0.6
		c0.1,0.2,0.2,0.3,0.4,0.4c0.2,0.1,0.4,0.1,0.6,0.1c0.2,0,0.4,0,0.6-0.1c0.2-0.1,0.3-0.2,0.4-0.4C82.6,9.7,82.6,9.5,82.6,9.3
		 M80.9,8.5h0.7c0.1,0,0.2,0,0.3,0c0.1,0,0.1,0.1,0.2,0.2c0,0.1,0.1,0.2,0.1,0.2c0,0.1,0,0.1,0,0.2c0,0.1-0.1,0.1-0.1,0.2
		c0.1,0,0.1,0.1,0.1,0.1c0,0,0,0.1,0,0.2c0,0.2,0,0.3,0,0.3c0,0,0,0.1,0.1,0.1h-0.4c0,0,0-0.1,0-0.1c0,0,0-0.1,0-0.1
		c0-0.1,0-0.2,0-0.3c0,0,0-0.1-0.1-0.1c0,0-0.1,0-0.2,0h-0.3v0.6h-0.3V8.5z M81.3,8.8v0.4h0.3c0.1,0,0.2,0,0.2,0
		c0,0,0.1-0.1,0.1-0.1c0-0.1,0-0.1-0.1-0.1c0,0-0.1,0-0.2,0H81.3z"/>
</g>
</svg>
