<svg xmlns="http://www.w3.org/2000/svg" width="155" height="45"><g><polygon fill="#fff" points="0.7,7.2 6,6 13.7,4.6 22.8,3.3 32.8,2.3 40.7,1.8 44.8,1.5 46.9,1.5 46.9,5.5 52.9,5.8 46.7,43.3 36.9,41.2 29.4,39.8 20.7,38.9 15.8,38.5 5.6,38.5 3.9,22.3 2.5,15"/><path fill="#174269" d="M142.6 28.7c1 .6 2.8 1.2 4.3 1.2 1.8 0 2.7-.7 2.7-1.8s-.7-1.7-2.7-2.4c-3.2-1.1-4.6-2.8-4.6-4.7 0-2.8 2.4-5.1 6.3-5.1 1.8 0 3.4.5 4.4 1l-.8 2.9c-.7-.4-2-.9-3.5-.9s-2.3.7-2.3 1.7.8 1.5 2.9 2.3c3 1.1 4.4 2.6 4.4 4.9 0 2.9-2.4 5.1-6.8 5.1-2 0-3.8-.5-5.1-1.2l.8-3z"/><path fill="#174269" d="M125.3 21.1c0-1.9 0-3.4-.1-4.8h3.7l.2 2.4h.1c.7-1.3 2.5-2.8 5.3-2.8 2.9 0 5.9 1.8 5.9 6.9v9.6h-4.2v-9.1c0-2.3-.9-4.1-3.2-4.1-1.7 0-2.8 1.2-3.3 2.4-.1.4-.2.9-.2 1.3v9.5h-4.2v-11.3z"/><path fill="#174269" d="M119.2 22.7c0-.4 0-.8-.1-1.1-.4-1.5-1.6-2.6-3.4-2.6-2.4 0-4.1 2-4.1 5.3 0 2.8 1.4 5 4.1 5 1.6 0 2.9-1 3.4-2.5.1-.4.2-1 .2-1.5v-2.6zm4.2 7.4c0 3.4-.7 5.8-2.5 7.3-1.7 1.5-4.1 2-6.4 2-2.1 0-4.4-.4-5.8-1.3l.9-3.1c1.1.6 2.8 1.2 4.8 1.2 2.7 0 4.8-1.4 4.8-4.9v-1.4h-.1c-1 1.4-2.7 2.4-4.8 2.4-4.1 0-7.1-3.3-7.1-7.9 0-5.3 3.5-8.5 7.5-8.5 2.5 0 4 1.2 4.8 2.5h.1l.2-2.2h3.6c-.1 1.1-.1 2.4-.1 4.6v9.3z"/><path fill="#174269" d="M101.6 16.3h4.2v16.1h-4.2v-16.1zm4.5-4.5c0 1.2-.9 2.2-2.4 2.2-1.4 0-2.3-1-2.3-2.2 0-1.3 1-2.2 2.4-2.2 1.4-.1 2.3.9 2.3 2.2"/><path fill="#174269" d="M89.3 28.7c1 .6 2.8 1.2 4.3 1.2 1.8 0 2.7-.7 2.7-1.8s-.7-1.7-2.7-2.4c-3.2-1.1-4.6-2.8-4.6-4.7 0-2.8 2.4-5.1 6.3-5.1 1.8 0 3.4.5 4.4 1l-.8 2.9c-.7-.4-2-.9-3.5-.9s-2.3.7-2.3 1.7.8 1.5 2.9 2.3c3 1.1 4.4 2.6 4.4 4.9 0 2.9-2.4 5.1-6.8 5.1-2 0-3.8-.5-5.1-1.2l.8-3z"/><path fill="#174269" d="M84.2 22.6c0-1.5-.7-3.9-3.4-3.9-2.6 0-3.7 2.3-3.9 3.9h7.3zm-7.3 2.9c.1 2.9 2.5 4.2 5.1 4.2 1.9 0 3.3-.3 4.6-.7l.6 2.8c-1.4.6-3.4 1-5.8 1-5.4 0-8.6-3.2-8.6-8.2 0-4.5 2.8-8.7 8.1-8.7 5.4 0 7.2 4.3 7.2 7.9 0 .8-.1 1.4-.1 1.7h-11.1z"/><path fill="#174269" d="M67.7 23c0-.3 0-.7-.1-1.1-.4-1.6-1.7-2.9-3.6-2.9-2.7 0-4.2 2.3-4.2 5.3 0 2.9 1.5 5.1 4.2 5.1 1.7 0 3.2-1.1 3.6-2.9.1-.4.1-.8.1-1.2v-2.3zm4.2-14.1v19c0 1.7.1 3.4.1 4.5h-3.8l-.2-2.6c-1 1.8-3 2.9-5.4 2.9-4 0-7.1-3.3-7.1-8.2 0-5.4 3.4-8.6 7.4-8.6 2.3 0 3.9.9 4.7 2.1h.1v-9.1h4.2z"/><path fill="#9EB0C9" d="M47.6 4.6c0 .4-.1.8-.1 1.1l5 .4-5.9 34.7 1.2.2c2-11.8 4-23.6 6-35.3.1-.4-.2-.7-.5-.7l-5.7-.4m-27.5 34.3c8.9 1.2 17.8 2.9 26.5 5h.4c.2-.1.4-.2.4-.5.1-.4.2-.9.2-1.3l-1.2-.2-.1.8c-3.1-.7-17.3-3.9-17.3-3.9-.1 0-8.7.1-8.9.1"/><path fill="#4C7196" d="M51.2 41.5c-1.1-.2-2.2-.4-3.3-.5l-1.2-.2-1.9-.3c.1-.1.2-.2.2-.4l2.5-34.4c0-.4.1-.8.1-1.1l.2-2.8c0-.3-.2-.6-.5-.6-11.8.1-23.5 1.2-35 3.1-1.7.2-3.3.5-4.9.8l-3.1.6c0-1.3 0-2.6.1-3.9 0-.4-.3-.6-.6-.6s-.5.2-.5.5l-.1 4.2c-1 .2-1.8.4-2.7.6-.3 0-.6.3-.5.6 2.5 8.9 3.2 18.2 4.5 27.3-.2-1.8-.4-3.6-.5-5.5.2 1.8.3 3.6.6 5.5.1.8.2 1.6.3 2.3h-.3c-.7 0-.8 1.1-.1 1.1h.6l.2 1.4c0 .3.3.5.5.5.3 0 .7-.2.6-.7v-.1c2.4-.1 4.9-.1 7.3-.1 2.2 0 4.4 0 6.5.1.2 0 11.5.9 19.1 1.9 2.4.3 4.9.7 7.3 1.1l1.2.2 3.4.6h.1c.5 0 .6-1.1-.1-1.2zm-48-25.4c-.5-2.9-1.1-5.8-1.9-8.6.6-.1 1.2-.2 1.8-.4 0 3 0 6 .1 9l.1 3.4c0-1.2-.1-2.3-.1-3.4zm2.9 20.7l-.4-2.6c.1.8.2 1.6.3 2.3l-.3-2.4-.5-4.7c-.6-6-.9-12.1-.9-18.1v-4.5c13.9-2.8 28.1-4.4 42.3-4.6-.9 12.4-1.9 24.8-2.7 37.1-7.1-.8-14.2-1.3-21.3-1.5-5.5-.4-11-.8-16.5-1z"/><path fill="#F36830" d="M16.1 13.7c-2.1 0-3.6 1.8-3.6 4.4 0 2.2 1.3 3.9 3.6 3.9 1.7 0 2.9-.8 3.6-1.8.1-.3.2-.6.2-1.2 0-2.8-1.1-5.3-3.8-5.3zm-5.8 15.8c.6.1 1.3 0 2.3-.1 1.6-.1 3.3-.7 4.5-1.6 1.4-1.1 2.4-2.7 2.8-4.7h-.1c-1.1 1.2-2.7 1.9-4.8 1.9-3.9 0-6.7-2.7-6.7-6.7 0-4.1 3.3-7.6 8-7.6 5.1 0 7.9 3.9 7.9 9.1 0 4.6-1.6 7.8-3.8 9.9-1.9 1.7-4.6 2.7-7.5 2.9-.9.1-1.9.1-2.5.1v-3.2z"/><path fill="#F36830" d="M32.6 13.7c-2.1 0-3.6 1.8-3.6 4.4 0 2.2 1.3 3.9 3.6 3.9 1.7 0 2.9-.8 3.6-1.8.1-.3.2-.6.2-1.2.1-2.8-1-5.3-3.8-5.3zm-5.8 15.8c.6.1 1.3 0 2.3-.1 1.6-.1 3.3-.7 4.5-1.6 1.4-1.1 2.4-2.7 2.8-4.7h-.1c-1.1 1.2-2.7 1.9-4.8 1.9-3.9 0-6.7-2.7-6.7-6.7 0-4.1 3.3-7.6 8-7.6 5.1 0 7.9 3.9 7.9 9.1 0 4.6-1.6 7.8-3.8 9.9-1.9 1.7-4.6 2.7-7.5 2.9-1 .1-1.9.1-2.5.1v-3.2z"/></g></svg>