<?xml version="1.0" encoding="utf-8"?>
<!-- Generator: Adobe Illustrator 17.1.0, SVG Export Plug-In . SVG Version: 6.00 Build 0)  -->
<!DOCTYPE svg PUBLIC "-//W3C//DTD SVG 1.1//EN" "http://www.w3.org/Graphics/SVG/1.1/DTD/svg11.dtd">
<svg version="1.1" id="Layer_1" xmlns="http://www.w3.org/2000/svg" xmlns:xlink="http://www.w3.org/1999/xlink" x="0px" y="0px"
	 viewBox="0 0 759.1 107.4" enable-background="new 0 0 759.1 107.4" xml:space="preserve">
<g id="Text_Logo">
	<path id="R" fill="#404040" d="M751.1,92.8c-3.4,3.8-7,2-8,0.9l-23.5-29.6h1.5c45-9.7,33.6-63.2-3.2-64.1h-77v105.2h12.2V70.7
		c0-4.4,1.6-6.6,6.5-6.6h44.6l30.8,38.5c6.2,5.3,17.2,7.5,24.1,0L751.1,92.8z M658.6,52.6c-4.4,0-5.5,2.2-5.5,2.2V11.7h64.8
		c27.3,1.1,28.2,39.5,0,40.9H658.6z"/>
	<path id="E" fill="#404040" d="M530.5,0h-97v105.2h100.3v-12h-88V63.3c0-4.4,1.6-6.6,6.5-6.6h52.2V45.2h-53.2
		c-4.4,0-5.5,2.2-5.5,2.2V11.7h84.8V0z"/>
	<path id="B" fill="#404040" d="M313.3,51.2c21-15.5,12-47.8-14.5-51.2h-80.2v105.2h80.2C324.7,101.8,337.4,68.9,313.3,51.2z
		 M230.8,11.7h66.8c21.5,2.5,20.8,31.5,0,33.5h-61.2c-4.4,0-5.5,2.2-5.5,2.2V11.7z M297.6,93.1h-66.8V63.3c0-4.4,1.6-6.6,6.5-6.6
		h60.2C320.5,59.6,319.7,90.8,297.6,93.1z"/>
	<path id="U" fill="#404040" d="M65.3,107.3c9,0,46-5.9,46-40.7V0H99v64c0,30.8-34.3,29.3-34.3,29.3H53.8c0,0-34.3,1.5-34.3-29.3V18
		C19.5,8.5,12,0,0,0v12c4.8,0,7.2,4.5,7.2,8v46.7c0,34.8,37,40.7,46,40.7H65.3z"/>
</g>
</svg>
