<?xml version="1.0" encoding="utf-8"?>
<!-- Generator: Adobe Illustrator 17.1.0, SVG Export Plug-In . SVG Version: 6.00 Build 0)  -->
<!DOCTYPE svg PUBLIC "-//W3C//DTD SVG 1.1//EN" "http://www.w3.org/Graphics/SVG/1.1/DTD/svg11.dtd">
<svg version="1.1" id="Layer_1" xmlns="http://www.w3.org/2000/svg" xmlns:xlink="http://www.w3.org/1999/xlink" x="0px" y="0px"
	 viewBox="0 150 792 300" enable-background="new 0 150 792 300" xml:space="preserve">
<g id="Layer_2">
</g>
<g>
	<path fill="#82B541" d="M101.6,246.1c-3.9-2.2-15.6-0.9-29,3.5c-24.2,16.4-44.5,40.6-45.8,79.5c-0.4,0.9-2.6,0-3-0.4
		c-6.5-12.5-9.1-25.5-3.9-44.5c0.9-1.7-2.2-3.9-3-3c-1.3,1.3-6.1,6.5-9.5,12.1c-16,28.1-5.2,64.4,23.3,80.4s64.4,5.6,80.4-22.9
		C129.3,317.9,112.4,252.2,101.6,246.1z"/>
	<g>
		<path fill="#1D1D1D" d="M203.6,262.1c-33.7,0-58.4,25.1-58.4,59.7c0,35,24.6,59.2,59.7,59.2c17.7,0,31.6-5.6,42.8-16.9
			c3.5-3.5,3.9-6.9,3.9-8.2c0-5.6-4.3-9.9-9.9-9.9c-3,0-5.2,1.3-8.2,3.9c-6.5,6.1-14.7,12.1-28.5,12.1c-19,0-35-14.3-35.9-32.9h76.5
			c8.2,0,12.5-3.9,12.5-11.7c0-2.2,0-3.9-0.4-7.3C253.3,279.8,233,262.1,203.6,262.1z M203.6,280.3c18.2,0,30.3,11.7,30.7,30.7H169
			C170.8,293.7,185.5,280.3,203.6,280.3z"/>
		<path fill="#1D1D1D" d="M330.7,262.1c-15.6,0-30.7,8.6-36.3,21.2v-7.8c0-11.7-9.1-12.5-10.8-12.5c-5.2,0-11.2,3.5-11.2,12.5v91.7
			c0,12.1,9.5,13,11.7,13c1.7,0,11.7-0.4,11.7-13v-49.3c0-21.2,12.1-36.3,29.4-36.3c16.9,0,25.1,10.8,25.1,33.7v51.9
			c0,12.1,9.5,13,11.7,13c1.7,0,11.7-0.4,11.7-13v-59.2C373.1,285.9,361.8,262.1,330.7,262.1z"/>
		<path fill="#1D1D1D" d="M478.6,263c-5.2,0-9.1,3-11.7,9.5l-32,80l-31.6-80c-2.6-6.1-6.5-9.5-11.7-9.5c-6.5,0-11.7,5.2-11.7,11.2
			c0,1.7,0,3.5,1.3,6.5l36.7,86.5c4.3,10.4,11.7,12.5,16.9,12.5c5.2,0,12.5-2.2,16.9-12.5l36.7-86.9c1.3-3,1.3-5.2,1.3-6.5
			C489.8,267.7,485.1,263,478.6,263z"/>
		<path fill="#1D1D1D" d="M546,262.1c-14.7,0-29,4.3-38.9,11.7c-3.5,2.6-5.2,5.6-5.2,9.1c0,5.2,3.9,9.1,9.1,9.1
			c2.2,0,4.8-0.9,6.9-2.6c8.6-6.1,17.3-8.6,25.9-8.6c17.3,0,27.2,8.6,27.2,24.2v2.6c-38.5,0-77.8,4.8-77.8,38.5
			c0,24.2,20.8,35,41.1,35c16.4,0,29.4-6.5,37.6-18.6v6.1c0,8.6,6.1,11.7,10.8,11.7c0.9,0,10.4-0.4,10.4-11.7v-62.3
			C593.6,278.5,575.8,262.1,546,262.1z M566.3,324.8h4.8v5.2c0,19.5-12.5,32.4-32,32.4c-5.2,0-22.5-1.3-22.5-16.9
			C517,327,545.1,324.8,566.3,324.8z"/>
		<path fill="#1D1D1D" d="M654.1,284.2c10.4,0,10.8-7.8,10.8-9.5c0-4.8-3-9.9-10.8-9.9h-20.8V244c0-9.5-6.1-13-11.2-13
			c-1.7,0-11.7,0.4-11.7,13v100.7c0,23.3,11.2,35.4,33.3,35.4c5.6,0,11.2-0.9,14.7-2.6c3.9-2.2,6.5-5.6,6.5-9.1
			c0-5.2-3.9-9.1-9.1-9.1c-0.9,0-2.6,0.4-4.3,0.9c-2.2,0.4-3.5,0.9-4.8,0.9c-8.6,0-13-5.6-13-18.2v-58.8H654.1z"/>
		<path fill="#1D1D1D" d="M731,262.1c-35,0-61,25.1-61,59.2c0,16.9,6.1,32,17.3,42.8c11.2,10.8,26.4,16.9,43.2,16.9
			c34.6,0,61-25.5,61-59.7C792,286.8,766.1,262.1,731,262.1z M731,361.1c-24.2,0-36.7-20.3-36.7-40.2c0-27.2,19-39.8,36.7-39.8
			s36.7,12.5,36.7,39.8C767.8,348.6,748.8,361.1,731,361.1z"/>
	</g>
</g>
</svg>
