<?xml version="1.0" encoding="utf-8"?>
<!-- Generator: Adobe Illustrator 17.1.0, SVG Export Plug-In . SVG Version: 6.00 Build 0)  -->
<!DOCTYPE svg PUBLIC "-//W3C//DTD SVG 1.1//EN" "http://www.w3.org/Graphics/SVG/1.1/DTD/svg11.dtd">
<svg version="1.1" xmlns="http://www.w3.org/2000/svg" xmlns:xlink="http://www.w3.org/1999/xlink" x="0px" y="0px"
	 viewBox="0 0 183.2 34.7" enable-background="new 0 0 183.2 34.7" xml:space="preserve">
<g id="Layer_2">
</g>
<g id="Layer_1">
	<g>
		<path fill="#82B541" d="M23.5,3.5c-0.9-0.5-3.6-0.2-6.7,0.8C11.2,8.1,6.5,13.7,6.2,22.7c-0.1,0.2-0.6,0-0.7-0.1
			C4,19.7,3.4,16.7,4.6,12.3c0.2-0.4-0.5-0.9-0.7-0.7c-0.3,0.3-1.4,1.5-2.2,2.8C-2,20.9,0.5,29.3,7.1,33c6.6,3.7,14.9,1.3,18.6-5.3
			C29.9,20.1,26,4.9,23.5,3.5z"/>
		<g>
			<path fill="#FFFFFF" d="M47.1,7.2C39.3,7.2,33.6,13,33.6,21c0,8.1,5.7,13.7,13.8,13.7c4.1,0,7.3-1.3,9.9-3.9
				c0.8-0.8,0.9-1.6,0.9-1.9c0-1.3-1-2.3-2.3-2.3c-0.7,0-1.2,0.3-1.9,0.9c-1.5,1.4-3.4,2.8-6.6,2.8c-4.4,0-8.1-3.3-8.3-7.6h17.7
				c1.9,0,2.9-0.9,2.9-2.7c0-0.5,0-0.9-0.1-1.7C58.6,11.3,53.9,7.2,47.1,7.2z M47.1,11.4c4.2,0,7,2.7,7.1,7.1H39.1
				C39.5,14.5,42.9,11.4,47.1,11.4z"/>
			<path fill="#FFFFFF" d="M76.5,7.2c-3.6,0-7.1,2-8.4,4.9v-1.8c0-2.7-2.1-2.9-2.5-2.9c-1.2,0-2.6,0.8-2.6,2.9v21.2
				c0,2.8,2.2,3,2.7,3c0.4,0,2.7-0.1,2.7-3V20.1c0-4.9,2.8-8.4,6.8-8.4c3.9,0,5.8,2.5,5.8,7.8v12c0,2.8,2.2,3,2.7,3
				c0.4,0,2.7-0.1,2.7-3V17.8C86.3,12.7,83.7,7.2,76.5,7.2z"/>
			<path fill="#FFFFFF" d="M110.7,7.4c-1.2,0-2.1,0.7-2.7,2.2l-7.4,18.5L93.3,9.6c-0.6-1.4-1.5-2.2-2.7-2.2c-1.5,0-2.7,1.2-2.7,2.6
				c0,0.4,0,0.8,0.3,1.5l8.5,20c1,2.4,2.7,2.9,3.9,2.9c1.2,0,2.9-0.5,3.9-2.9l8.5-20.1c0.3-0.7,0.3-1.2,0.3-1.5
				C113.3,8.5,112.2,7.4,110.7,7.4z"/>
			<path fill="#FFFFFF" d="M126.3,7.2c-3.4,0-6.7,1-9,2.7c-0.8,0.6-1.2,1.3-1.2,2.1c0,1.2,0.9,2.1,2.1,2.1c0.5,0,1.1-0.2,1.6-0.6
				c2-1.4,4-2,6-2c4,0,6.3,2,6.3,5.6v0.6c-8.9,0-18,1.1-18,8.9c0,5.6,4.8,8.1,9.5,8.1c3.8,0,6.8-1.5,8.7-4.3v1.4
				c0,2,1.4,2.7,2.5,2.7c0.2,0,2.4-0.1,2.4-2.7V17.4C137.3,11,133.2,7.2,126.3,7.2z M131,21.7h1.1v1.2c0,4.5-2.9,7.5-7.4,7.5
				c-1.2,0-5.2-0.3-5.2-3.9C119.6,22.2,126.1,21.7,131,21.7z"/>
			<path fill="#FFFFFF" d="M151.3,12.3c2.4,0,2.5-1.8,2.5-2.2c0-1.1-0.7-2.3-2.5-2.3h-4.8V3c0-2.2-1.4-3-2.6-3c-0.4,0-2.7,0.1-2.7,3
				v23.3c0,5.4,2.6,8.2,7.7,8.2c1.3,0,2.6-0.2,3.4-0.6c0.9-0.5,1.5-1.3,1.5-2.1c0-1.2-0.9-2.1-2.1-2.1c-0.2,0-0.6,0.1-1,0.2
				c-0.5,0.1-0.8,0.2-1.1,0.2c-2,0-3-1.3-3-4.2V12.3H151.3z"/>
			<path fill="#FFFFFF" d="M169.1,7.2c-8.1,0-14.1,5.8-14.1,13.7c0,3.9,1.4,7.4,4,9.9c2.6,2.5,6.1,3.9,10,3.9
				c8,0,14.1-5.9,14.1-13.8C183.2,12.9,177.2,7.2,169.1,7.2z M169.1,30.1c-5.6,0-8.5-4.7-8.5-9.3c0-6.3,4.4-9.2,8.5-9.2
				c4.1,0,8.5,2.9,8.5,9.2C177.6,27.2,173.2,30.1,169.1,30.1z"/>
		</g>
	</g>
</g>
</svg>
