<?xml version="1.0" encoding="utf-8"?>
<!-- Generator: Adobe Illustrator 17.1.0, SVG Export Plug-In . SVG Version: 6.00 Build 0)  -->
<!DOCTYPE svg PUBLIC "-//W3C//DTD SVG 1.1//EN" "http://www.w3.org/Graphics/SVG/1.1/DTD/svg11.dtd">
<svg version="1.1" id="Layer_1" xmlns="http://www.w3.org/2000/svg" xmlns:xlink="http://www.w3.org/1999/xlink" x="0px" y="0px"
	 viewBox="0 0 148.9 49" enable-background="new 0 0 148.9 49" xml:space="preserve">
<g>
	<path fill="#DE5C26" d="M1.7,25.8c0.1-0.9,0.6-1.4,1.5-1.4h2.2c0.8,0,1.3,0.4,1.6,1.2l4.3,10.8c0.5,1.4,1.2,3.6,1.2,3.6h0.1
		c0,0,0.6-2.1,1.2-3.6l4.3-10.8c0.3-0.8,0.8-1.2,1.6-1.2h2.1c0.9,0,1.4,0.5,1.5,1.4l1.7,21.4c0.1,0.9-0.4,1.5-1.4,1.5h-1.5
		c-0.9,0-1.4-0.5-1.5-1.4l-0.9-12.2c-0.1-1.6,0-3.8,0-3.8h-0.1c0,0-0.8,2.4-1.3,3.8l-3.5,8.3c-0.3,0.8-0.8,1.1-1.6,1.1h-1.4
		c-0.9,0-1.4-0.4-1.6-1.1l-3.5-8.3c-0.5-1.4-1.3-3.8-1.3-3.8H5.3c0,0,0.1,2.2,0,3.8L4.4,47.3c-0.1,0.9-0.5,1.4-1.5,1.4H1.4
		c-1,0-1.4-0.5-1.4-1.5L1.7,25.8z"/>
	<path fill="#DE5C26" d="M34.9,30.8c5,0,7.7,3.5,7.7,8.3c0,0.8-0.6,1.5-1.5,1.5H30.5c0.3,3.1,2.6,4.8,5.2,4.8c1.6,0,2.9-0.6,3.8-1.1
		c0.9-0.4,1.5-0.3,1.9,0.5l0.4,0.7c0.4,0.8,0.3,1.5-0.5,1.9C40.2,48,38.1,49,35.4,49c-5.8,0-9.4-4.2-9.4-9.1
		C26,34.6,29.6,30.8,34.9,30.8z M38.3,37.9c-0.1-2.4-1.5-3.9-3.5-3.9c-2.2,0-3.8,1.5-4.2,3.9H38.3z"/>
	<path fill="#DE5C26" d="M44.7,25.8c0-0.9,0.5-1.4,1.4-1.4h1.5c0.9,0,1.4,0.5,1.4,1.4v17c0,1.7,0.7,2,1.4,2.1
		c0.6,0.1,1.1,0.4,1.1,1.2v1.2c0,0.9-0.4,1.5-1.4,1.5c-2.3,0-5.3-0.6-5.3-5.6V25.8z"/>
	<path fill="#DE5C26" d="M53.3,25.8c0-0.9,0.5-1.4,1.4-1.4h1.5c1,0,1.4,0.5,1.4,1.4v6.3c0,0.9-0.1,1.5-0.1,1.5h0.1
		c0,0,1.5-2.8,5.3-2.8c4.6,0,7.7,3.7,7.7,9.1c0,5.6-3.4,9.1-8,9.1c-3.9,0-5.3-2.9-5.3-2.9h-0.1c0,0,0.1,0.3,0.1,0.8v0.5
		c0,0.8-0.5,1.2-1.4,1.2h-1.2c-0.9,0-1.4-0.5-1.4-1.4V25.8z M61.8,45.4c2.4,0,4.4-1.9,4.4-5.4c0-3.3-1.8-5.5-4.3-5.5
		c-2.3,0-4.4,1.7-4.4,5.4C57.5,42.8,58.9,45.4,61.8,45.4z"/>
	<path fill="#DE5C26" d="M85.6,24c4,0,6.6,1.5,7.9,2.4c0.7,0.5,0.8,1.2,0.3,2l-0.6,1c-0.5,0.8-1.1,0.9-1.9,0.3
		c-1.1-0.7-3-1.7-5.5-1.7c-5.3,0-8.1,3.9-8.1,8.3c0,4.5,2.9,8.7,8.2,8.7c2.7,0,4.8-1.3,5.9-2.1c0.8-0.5,1.4-0.5,2,0.2l0.7,0.9
		c0.5,0.7,0.5,1.4-0.2,2c-1.4,1.1-4.3,3-8.6,3c-7.6,0-12.5-5.5-12.5-12.6C73.1,29.4,78.2,24,85.6,24z"/>
	<path fill="#DE5C26" d="M96.5,44.6l0.8-1.1c0.5-0.8,1.1-0.8,2-0.3c0.8,0.5,2.5,1.8,4.9,1.8c2.3,0,3.6-1.1,3.6-2.8
		c0-4.6-11.3-3.7-11.3-11.2c0-4.3,3.6-7,8.2-7c2.9,0,5.2,1.1,6.2,1.8c0.8,0.5,0.9,1.2,0.4,1.9l-0.6,1.1c-0.5,1-1.2,0.9-1.9,0.5
		c-1-0.6-2.3-1.3-4.2-1.3c-2.3,0-3.7,1.1-3.7,2.7c0,4.5,11.3,3.4,11.3,11.1c0,3.9-2.9,7.2-8,7.2c-3.4,0-6.2-1.5-7.4-2.5
		C96.2,46.1,95.8,45.5,96.5,44.6z"/>
	<path fill="#DE5C26" d="M114.3,44.6l0.8-1.1c0.5-0.8,1.1-0.8,2-0.3c0.8,0.5,2.5,1.8,4.9,1.8c2.3,0,3.6-1.1,3.6-2.8
		c0-4.6-11.3-3.7-11.3-11.2c0-4.3,3.6-7,8.2-7c2.9,0,5.2,1.1,6.2,1.8c0.8,0.5,0.9,1.2,0.4,1.9l-0.6,1.1c-0.5,1-1.2,0.9-1.9,0.5
		c-1-0.6-2.3-1.3-4.2-1.3c-2.3,0-3.7,1.1-3.7,2.7c0,4.5,11.3,3.4,11.3,11.1c0,3.9-2.9,7.2-8,7.2c-3.4,0-6.2-1.5-7.4-2.5
		C113.9,46.1,113.6,45.5,114.3,44.6z"/>
</g>
<g>
	<path fill="#1ABBB4" d="M135.8,25.9l-9-5.2c-0.8-0.5-1.3-1.4-1.3-2.3V7.9c0-1,0.5-1.9,1.3-2.3l9-5.2c0.8-0.5,1.9-0.5,2.7,0l9,5.2
		c0.8,0.5,1.3,1.4,1.3,2.3v10.4c0,1-0.5,1.9-1.3,2.3l-9,5.2C137.7,26.4,136.7,26.4,135.8,25.9z"/>
	<g>
		<g>
			<path fill="#FFFFFF" d="M132,15.1c0.1-0.4,0.3-0.5,0.7-0.5h0.6c0.5,0,0.7,0.3,0.5,0.7l-0.9,2.6c-0.1,0.4-0.4,0.5-0.7,0.5h-0.2
				c-0.5,0-0.7-0.3-0.6-0.7L132,15.1z M132.2,10V9.3c0-0.4,0.2-0.6,0.6-0.6h0.6c0.4,0,0.6,0.2,0.6,0.6V10c0,0.4-0.2,0.6-0.6,0.6
				h-0.6C132.4,10.7,132.2,10.4,132.2,10z"/>
			<path fill="#FFFFFF" d="M139.2,18c0.3,0,0.9-0.1,0.9-1.3V15c0-1.6,1.3-1.9,1.3-1.9v0c0,0-1.3-0.4-1.3-1.9V9.5
				c0-1.2-0.6-1.3-0.9-1.3c-0.4,0-0.6-0.2-0.6-0.6V7.3c0-0.4,0.2-0.6,0.6-0.6h0.2c0.7,0,2.3,0.4,2.3,2.6v1.3c0,0.9,0.4,1.3,0.8,1.5
				c0.3,0.2,0.5,0.3,0.5,0.7v0.6c0,0.4-0.2,0.5-0.5,0.7c-0.3,0.2-0.8,0.6-0.8,1.4V17c0,2.2-1.7,2.6-2.3,2.6h-0.2
				c-0.4,0-0.6-0.2-0.6-0.6v-0.2C138.6,18.3,138.8,18,139.2,18z"/>
		</g>
	</g>
</g>
</svg>
